<?xml version="1.0" encoding="utf-8"?>
<!-- Generator: Adobe Illustrator 19.2.1, SVG Export Plug-In . SVG Version: 6.00 Build 0)  -->
<svg version="1.1" id="layer" xmlns="http://www.w3.org/2000/svg" xmlns:xlink="http://www.w3.org/1999/xlink" x="0px" y="0px"
	 viewBox="0 0 652 652" style="enable-background:new 0 0 652 652;" xml:space="preserve">
<style type="text/css">
	.st0{fill:#1B296B;}
	.st1{fill:url(#Rectangle-path_3_);}
	.st2{fill:#FFFFFF;}
</style>
<g id="Symbols">
	<g id="UK-Header" transform="translate(-19.000000, -15.000000)">
		<g>
			<g id="Group-10" transform="translate(19.000000, 15.000000)">
				<g id="UoN_Logo_RGB">
					<g id="New_Logo">
						<g id="Uni_of_Notts" transform="translate(109.825149, 24.610173)">
							<path id="Shape" class="st0" d="M255.2,404.2l-0.7-2c-2.8,0.9-4.7,1.3-6.2,1.3c-3.9,0-6.1-3.4-6.1-9.7c0-5.8,2.3-9.1,6.5-9.1
								c1.4,0,3.2,0.2,5.3,0.7l0.5-2c-2.1-0.6-4.3-1.1-5.9-1.1c-6.1,0-9.3,4.1-9.3,11.8c0,7.5,3.2,11.8,8.5,11.8
								C249.9,406,252.5,405.3,255.2,404.2L255.2,404.2z"/>
							<polygon id="Shape_1_" class="st0" points="276.1,405.5 276.1,382.7 273.4,382.7 273.4,392.5 262.3,392.5 262.3,382.7 
								259.6,382.7 259.6,405.5 262.3,405.5 262.3,394.5 273.4,394.5 273.4,405.5 							"/>
							<polygon id="Shape_2_" class="st0" points="284.4,405.5 284.4,382.7 281.7,382.7 281.7,405.5 							"/>
							<polygon id="Shape_3_" class="st0" points="306.4,405.5 306.4,382.7 304.1,382.7 304.1,402.9 293.8,382.7 289.9,382.7 
								289.9,405.5 292.2,405.5 292.2,385.5 302.4,405.5 							"/>
							<path id="Shape_4_" class="st0" d="M320.8,382.7h-3.1l-8.2,22.8h2.5l2.3-6.2h9.9l2.3,6.2h2.8L320.8,382.7z M315,397.2
								l4.2-12.2l4.3,12.2H315z"/>
							<polygon id="Shape_5_" class="st0" points="387.5,405.5 386.7,382.7 382.8,382.7 376.3,403.3 369.6,382.7 365.7,382.7 
								364.9,405.5 367.5,405.5 367.8,385.3 374.4,405.5 377.7,405.5 384.3,385.3 384.7,405.5 							"/>
							<path id="Shape_6_" class="st0" d="M402,382.7h-3.1l-8.1,22.8h2.5l2.1-6.2h9.9l2.3,6.2h2.8L402,382.7z M396.1,397.2l4.2-12.3
								l4.3,12.3H396.1z"/>
							<polygon id="Shape_7_" class="st0" points="426.7,405.5 426.7,403.5 416.5,403.5 416.5,382.7 413.8,382.7 413.8,405.5 
															"/>
							<path id="Shape_8_" class="st0" d="M440,382.7h-3.1l-8.1,22.8h2.5l2.1-6.2h9.9l2.3,6.2h2.8L440,382.7z M434.1,397.2l4.2-12.3
								l4.3,12.3H434.1z"/>
							<polygon id="Shape_9_" class="st0" points="465.2,382.7 462.3,382.7 456.3,393.2 450.1,382.7 446.9,382.7 454.7,395.5 
								454.7,405.5 457.5,405.5 457.5,395.5 							"/>
							<path id="Shape_10_" class="st0" d="M480.4,399c0-3.4-1.3-5-6.3-6.5c-4.3-1.3-4.9-1.9-4.9-4c0-2.5,1.8-3.8,4.3-3.8
								c1.4,0,3.2,0.2,5.5,0.7l0.5-2c-2.1-0.6-4.2-0.9-6.1-0.9c-4.2,0-6.9,2.4-6.9,6.3c0,5.3,5.2,5.6,9,7.2c1.8,0.8,2.3,1.7,2.3,3.3
								c0,2.5-2.1,4.1-5.1,4.1c-1.7,0-3.4-0.4-5.8-0.9l-0.6,2.1c2.5,0.7,4.4,1.1,6.5,1.1C477.3,405.8,480.4,403.2,480.4,399
								L480.4,399z"/>
							<polygon id="Shape_11_" class="st0" points="487.4,405.5 487.4,382.7 484.6,382.7 484.6,405.5 							"/>
							<path id="Shape_12_" class="st0" d="M502.1,382.7H499l-8.2,22.8h2.5l2.3-6.2h9.9l2.3,6.2h2.8L502.1,382.7z M496.1,397.2
								l4.2-12.3l4.3,12.3H496.1z"/>
							<path id="Shape_13_" class="st0" d="M185.9,396.3v-13.5h-2.4v14.4c0,2.1-0.1,3.2-0.6,4.1c-0.8,1.5-2.5,2.2-5,2.2
								c-3.8,0-5.7-1.7-5.7-5.4v-15.4h-2.7v13.3c0,4.4,0.1,5.4,1.2,6.9c1.2,1.8,3.8,2.8,6.9,2.8c2.8,0,5-0.7,6.5-2.1
								C185.5,402.2,185.9,401,185.9,396.3L185.9,396.3z"/>
							<polygon id="Shape_14_" class="st0" points="206.9,405.5 196.4,393.3 206.6,382.7 203.4,382.7 193.5,393.1 193.5,382.7 
								190.7,382.7 190.7,405.5 193.5,405.5 193.5,393.7 203.6,405.5 							"/>
							<rect id="Rectangle-path" x="221.5" y="380.4" class="st0" width="1.2" height="27.5"/>
							<rect id="Rectangle-path_1_" x="344.9" y="380.4" class="st0" width="1.2" height="27.5"/>
							<path id="Shape_15_" class="st0" d="M501.7,349.2v-27.5c0-3.4-1.9-6.3-6.5-6.3c-2.6,0-4.5,0.7-6.1,2.2
								c0.5,1.3,0.6,2.6,0.6,5.3v26.2H481v-27.5c0-3.2-0.8-6.5-6.5-6.5c-2.8,0-3.9,0.5-5.5,1.2v32.8h-8.8V313
								c3.3-1.4,8.1-3.2,14.7-3.2c5.5,0,9,1.3,11.3,3.2c2.6-1.9,6.1-3.2,11-3.2c9.3,0,13.3,5.3,13.3,12v27.5H501.7L501.7,349.2z"/>
							<path id="Shape_16_" class="st0" d="M409.1,349.2v-26.9c0-3.8-1.5-6.5-6.5-6.5c-2.7,0-4.6,0.7-6.5,1.9v31.5h-8.8v-51.7h8.8
								v14.3c2.3-1.1,5.6-1.8,8.7-1.8c9.6,0,13.1,5.8,13.1,11.6v27.5h-8.7V349.2z"/>
							<path id="Shape_17_" class="st0" d="M302.2,305.1c-3.3,0-5.1-2.1-5.1-4.6c0-2.5,1.8-4.6,5.1-4.6c3.2,0,5.1,2.1,5.1,4.6
								C307.3,302.8,305.4,305.1,302.2,305.1L302.2,305.1z"/>
							<path id="Shape_18_" class="st0" d="M334.7,349.2v-27.5c0-3.2-1.3-6.5-6.9-6.5c-2.8,0-4.3,0.5-5.9,1.2v32.8h-8.8V313
								c3.3-1.4,8.5-3.2,15.1-3.2c11.5,0,15.3,5.6,15.3,11.7v27.6h-8.8V349.2z"/>
							<polygon id="Shape_19_" class="st0" points="297.8,349.2 297.8,310.6 306.6,310.6 306.6,349.2 							"/>
							<path id="Shape_20_" class="st0" d="M286.3,349.7c-7.6,0-10.7-4.3-10.7-10.5v-23h-4.3v-5.6h4.3v-7.8l8.8-2.5v10.2h6.2v5.6
								h-6.2v23c0,3.4,1.9,4.5,4.3,4.5c0.7,0,1.8,0,2.6-0.1v5.8C290.4,349.3,288.2,349.7,286.3,349.7L286.3,349.7z"/>
							<path id="Shape_21_" class="st0" d="M262.9,349.7c-7.6,0-10.7-4.3-10.7-10.5v-23H248v-5.6h4.3v-7.8l8.8-2.5v10.2h6.2v5.6H261
								v23c0,3.4,1.9,4.5,4.3,4.5c0.7,0,1.8,0,2.6-0.1v5.8C267.1,349.3,264.8,349.7,262.9,349.7L262.9,349.7z"/>
							<path id="Shape_22_" class="st0" d="M199.1,349.2l-18.4-31c-1.2-1.9-2-3.8-3-6h-0.1c0.2,2.5,0.5,4.5,0.5,6.3v30.8h-8.5V300h9
								l17.1,29c0.9,1.8,1.9,3.3,2.7,5.6h0.1c-0.2-2.5-0.2-4.1-0.2-5.9v-28.8h8.5v49.2h-7.7V349.2z"/>
							<path id="Shape_23_" class="st0" d="M438.8,309.9c-6.1,0-10.7,1.8-13.3,2.8l2,5.3c2.3-1.2,5.9-2.5,9.6-2.5
								c4.6,0,7.6,1.3,7.6,6.3v2.1c-0.7-0.1-3.3-0.6-5.6-0.6c-8.9,0-16.1,4.6-16.1,13.7c0,7.5,5,13,16,13c6.1,0,10.9-1.2,14.2-2.7
								v-24.3C453.4,313.3,446.9,309.9,438.8,309.9L438.8,309.9z M444.9,344.3c-1.1,0.5-3.2,1.1-5.2,1.1c-4.6,0-7.8-3-7.8-8.3
								c0-5,2.7-8.5,8.1-8.5c2.5,0,4,0.5,4.9,0.6v15.1H444.9z"/>
							<path id="Shape_24_" class="st0" d="M367.5,309.9c-12.5,0-18.6,7.9-18.6,20.4c0,12.1,6.2,19.2,15.5,19.2
								c3.4,0,6.1-0.6,7.6-1.4v2.5c0,5.2-2.7,8.5-9.1,8.5c-4.3,0-7-1.2-9.4-2.1l-2.5,5.4c2.8,1.5,7.5,2.8,13.4,2.8
								c9.6,0,16.3-5.3,16.3-15.5v-37C377.9,311.2,373.3,309.9,367.5,309.9L367.5,309.9z M372,342.5c-1.3,0.7-3,1.3-5,1.3
								c-6.2,0-8.9-4.6-8.9-13.5c0-9.2,2.8-14.9,9.4-14.9c1.9,0,3.3,0.1,4.6,0.8v26.3H372z"/>
							<path id="Shape_25_" class="st0" d="M228.8,309.9c-10.9,0-16.4,8.3-16.4,20.1c0,11.6,5.5,20,16.4,20c10.9,0,16.4-8.3,16.4-20
								C245.2,318.2,239.8,309.9,228.8,309.9L228.8,309.9z M229.3,344.6c-6.1,0-7-7.8-7-14.7c0-7,0.9-14.8,7-14.8
								c6.1,0,7,7.7,7,14.8C236.4,336.9,235.4,344.6,229.3,344.6L229.3,344.6z"/>
							<path id="Shape_26_" class="st0" d="M434.3,250.5c-3.2,0-3.9,1.5-3.9,3.9v1.2h4.6v4.7h-4.6V282h-7v-21.7h-2.8v-4.7h2.8v-1.9
								c0-5.3,3.4-8.2,9.3-8.2c1.2,0,2,0,3.1,0.1v4.7h-1.4V250.5z"/>
							<path id="Shape_27_" class="st0" d="M368.7,292.6c-3.9,0-7-0.8-9-1.9l1.5-4.1c1.5,0.7,3.6,1.4,6.5,1.4c4.4,0,5.8-2,5.8-5.4
								v-1.7c-0.8,0.5-2.6,1.2-5.5,1.2c-6.5,0-9.4-3.2-9.4-8.5v-17.9h7v17.5c0,2.4,0.8,4.3,4.3,4.3c1.7,0,2.7-0.5,3.6-0.8v-20.9h7
								v25.4C380.5,289.4,375.6,292.6,368.7,292.6L368.7,292.6z"/>
							<path id="Shape_28_" class="st0" d="M349.9,282.5c-5.1,0-7.7-2.7-7.7-7.2v-14.8h-3v-4.7h3v-5.4l7-1.9v7.3h4.3v4.7h-4.3v14.2
								c0,2.4,1.2,3.1,2.8,3.1c0.8,0,1.5,0,2.4-0.1v4.4C353.8,282.1,352.4,282.5,349.9,282.5L349.9,282.5z"/>
							<polygon id="Shape_29_" class="st0" points="327.5,282.1 327.5,255.7 334.5,255.7 334.5,282.1 							"/>
							<path id="Shape_30_" class="st0" d="M313,282.6c-3.4,0-6.2-0.8-8.2-1.9l1.7-4.4c1.4,0.7,3.2,1.5,5.5,1.5
								c2.6,0,4.2-0.8,4.2-2.8c0-1.9-1.2-2.7-4.3-3.9c-5.1-2-6.2-5.1-6.2-8c0-4.3,3.2-7.8,9-7.8c3.2,0,5.7,0.8,7.5,1.9l-1.9,4.1
								c-0.8-0.5-2.7-1.4-4.7-1.4c-2.4,0-3.6,1.1-3.6,2.7c0,1.9,1.9,2.6,4.3,3.5c5.3,2,6.5,5.1,6.5,8.4
								C322.7,279.1,318.8,282.6,313,282.6L313,282.6z"/>
							<path id="Shape_31_" class="st0" d="M302.6,260.4c-0.5-0.1-2-0.4-3.2-0.4s-2.3,0.1-3,0.4v21.7h-7v-24.8
								c1.1-0.5,5.1-1.9,9.7-1.9c2.7,0,3.4,0.1,4.4,0.4L302.6,260.4L302.6,260.4z"/>
							<path id="Shape_32_" class="st0" d="M229,252.4c-2.6,0-3.8-1.5-3.8-3.4s1.2-3.4,3.8-3.4c2.4,0,3.8,1.5,3.8,3.4
								S231.3,252.4,229,252.4L229,252.4z"/>
							<path id="Shape_33_" class="st0" d="M251.6,282.1H245l-9-26.4h7.5l3.4,12.4c0.4,1.2,1.2,4.3,1.5,5.8h0.1
								c0.1-1.5,1.1-4.6,1.4-5.8l3.6-12.4h7L251.6,282.1L251.6,282.1z"/>
							<polygon id="Shape_34_" class="st0" points="225.3,282.1 225.3,255.7 232.3,255.7 232.3,282.1 							"/>
							<path id="Shape_35_" class="st0" d="M331.2,252.4c-2.6,0-3.8-1.5-3.8-3.4s1.2-3.4,3.8-3.4c2.4,0,3.8,1.5,3.8,3.4
								C334.8,250.9,333.5,252.4,331.2,252.4L331.2,252.4z"/>
							<path id="Shape_36_" class="st0" d="M213.3,282.1v-18.6c0-1.9-0.8-3.8-4.3-3.8c-1.7,0-2.7,0.4-3.6,0.7v21.7h-7v-24.8
								c3-1.2,6.5-2,10.9-2c8.1,0,10.9,3.9,10.9,8.4v18.6h-7V282.1z"/>
							<path id="Shape_37_" class="st0" d="M181.4,282.6c-6.9,0-12-3.5-12-10.5v-23.5h7.4V272c0,3.2,1.7,5,4.6,5
								c2.8,0,4.6-1.7,4.6-5v-23.5h7.4V272C193.4,279,188.3,282.6,181.4,282.6L181.4,282.6z"/>
							<path id="Shape_38_" class="st0" d="M406.2,255.1c-7.8,0-11.6,5.8-11.6,13.6c0,8,3.8,13.8,11.6,13.8s11.6-5.8,11.6-13.8
								C417.8,260.9,414,255.1,406.2,255.1L406.2,255.1z M406.2,278c-3.6,0-4.4-4.1-4.4-9.2c0-5,0.8-9,4.4-9s4.5,4.1,4.5,9
								C410.6,273.9,409.7,278,406.2,278L406.2,278z"/>
							<path id="Shape_39_" class="st0" d="M284.9,268.3c0-8.4-4.3-13.1-11.5-13.1c-7.4,0-11.8,5.1-11.8,13.6
								c0,8.9,5,13.8,12.8,13.8c4.2,0,7.2-0.8,9.4-2l-1.7-4.6c-1.9,0.8-3.9,1.5-7,1.5c-3.2,0-6.2-1.4-6.6-6.5h16.4V268.3
								L284.9,268.3z M278.2,266.6h-10c0-5.1,2-7,5-7c2.7,0,5,1.7,5,6.6V266.6L278.2,266.6z"/>
						</g>
						
							<radialGradient id="Rectangle-path_3_" cx="27.8978" cy="743.8353" r="2.9808" gradientTransform="matrix(94.0567 0 0 -93.7698 -2605.5869 69940.8672)" gradientUnits="userSpaceOnUse">
							<stop  offset="0" style="stop-color:#009BBD"/>
							<stop  offset="0.1735" style="stop-color:#009BBD"/>
							<stop  offset="1" style="stop-color:#1B296B"/>
						</radialGradient>
						<rect id="Rectangle-path_2_" x="20.3" y="211.6" class="st1" width="221.6" height="220.9"/>
						<g id="Castle" transform="translate(23.174114, 18.583192)">
							<g id="Group" transform="translate(0.000000, 0.000000)">
								<path id="Shape_40_" class="st2" d="M146.8,246.1c-5-2.7-9.7-4.9-16.1-6.4v13.1c5.7,1.3,11.2,3.3,16.1,5.6V246.1z"/>
								<path id="Shape_41_" class="st2" d="M124.9,289.2c-1.5,0-2.8,1.3-2.8,3l-0.8,26.9h7.6l-0.9-26.9
									C127.7,290.4,126.7,289.2,124.9,289.2z"/>
								<path id="Shape_42_" class="st2" d="M131.6,363.2c-8.1,0-13.8-1.9-21.1-5.6c-7.8-4-16.6-7.5-27.8-7.5
									c-10.4,0-21.6,3.7-30.1,16.3c10.2-6.3,19.6-8.3,27.5-8.3c8.4,0,15,2.1,21.5,5.6c7.5,3.9,13.9,6.6,23.3,6.6
									c9,0,19.2-3.4,28-14.9C145.9,361.3,138.4,363.2,131.6,363.2z"/>
								<path id="Shape_43_" class="st2" d="M87,345.8c7.1,0,15.4,2,24.8,7.1v-26.5l-3.9-4.9v-36.9l7.6-11.7l-3.2,11.2
									c2.1-0.2,4.3-0.5,6.6-0.5c7.5,0,14.4,1.3,20.2,3.5l7.6-7v-18.9c-5-2.2-10.4-4.1-16.1-5.6c-3.4-0.8-7.1-1.4-10.9-1.9v-16.4
									c-4-0.6-8.2-0.8-12.5-0.8c-4,0-8.1,0.2-11.9,0.7v15.6c-3.7,0.5-7.4,1.2-10.8,2v-15.4c-6.2,1.7-12,4.1-17.3,7.1v32.1l7.4,7
									l-2.1,36l-5.9,5.9v20.8l2,2.1C73.5,347.9,79.7,345.8,87,345.8z M85.9,292.2c0-1.7,1.3-3,2.8-3c1.5,0,2.8,1.3,2.8,3l0.9,26.9
									H85L85.9,292.2z"/>
							</g>
						</g>
					</g>
				</g>
			</g>
		</g>
	</g>
</g>
</svg>
